<svg xmlns="http://www.w3.org/2000/svg" version="1.1" xmlns:xlink="http://www.w3.org/1999/xlink" xmlns:svgjs="http://svgjs.dev/svgjs" width="2000" height="432" viewBox="0 0 2000 432"><g transform="matrix(1,0,0,1,0.3398876404492057,0.34923356209199596)"><svg viewBox="0 0 356 77" data-background-color="#ffffff" preserveAspectRatio="xMidYMid meet" height="432" width="2000" xmlns="http://www.w3.org/2000/svg" xmlns:xlink="http://www.w3.org/1999/xlink"><g id="tight-bounds" transform="matrix(1,0,0,1,-0.06049999999996203,-0.0622476487988024)"><svg viewBox="0 0 356.12052 77.12449529759758" height="77.12449529759758" width="356.12052"><g><svg viewBox="0 0 356.12052 77.12449529759758" height="77.12449529759758" width="356.12052"><g><svg viewBox="0 0 356.12052 77.12449529759758" height="77.12449529759758" width="356.12052"><g><path d="M0 77.124v-77.124h356.121v77.124z" fill="#2d7def" stroke="transparent" stroke-width="0" rx="0%" data-fill-palette-color="tertiary"></path><path d="M3.283 73.841v-70.558h349.554v70.558z" fill="#ffffff" stroke="transparent" stroke-width="0" rx="0%" data-fill-palette-color="quaternary"></path><path d="M9.85 67.275v-57.425h336.421v57.425z" fill="#2d7def" stroke="transparent" stroke-width="0" data-fill-palette-color="tertiary"></path></g><g transform="matrix(1,0,0,1,19.69974,19.69974)" id="textblocktransform"><svg viewBox="0 0 316.72104 37.72501529759757" height="37.72501529759757" width="316.72104" id="textblock"><g><svg viewBox="0 0 316.72104 37.72501529759757" height="37.72501529759757" width="316.72104"><g transform="matrix(1,0,0,1,0,0)"><svg width="316.72104" viewBox="2.34 -39.6 338.38000000000005 40.31" height="37.72501529759757" data-palette-color="#ffffff"><path d="M28.88-16.55L35.13-16.55 35.13 0 2.34 0 2.34-8.59 7.06-8.59 7.06-30.25 2.34-30.25 2.34-38.84 35.13-38.84 35.13-23.39 28.88-23.39 26.54-30.25 19.56-30.25 19.56-23.9 25.81-23.9 25.81-17.5 19.56-17.5 19.56-8.59 26.54-8.59 28.88-16.55ZM48.46 0.44L48.46 0.44Q44.92 0.44 42.33-1.44L42.33-1.44Q39.77-3.32 38.44-6.48 37.11-9.64 37.11-13.45L37.11-13.45Q37.11-16.89 38.47-19.97L38.47-19.97Q39.84-23 42.34-24.83 44.85-26.66 48.26-26.66L48.26-26.66Q50.75-26.66 52.54-25.85 54.32-25.05 55.86-23.46L55.86-23.46 55.86-29.86 51.95-29.86 51.95-36.5 67.6-38.11 67.6-7.35 70.7-7.35 70.7 0 55.66 0 55.66-3.15Q54.47-1.54 52.61-0.57 50.75 0.39 48.46 0.44ZM52.37-6.69L52.37-6.69Q53.51-6.69 54.44-7.24 55.37-7.79 55.86-8.54L55.86-8.54 55.86-17.8Q55.3-18.46 54.36-18.98 53.42-19.51 52.37-19.51L52.37-19.51Q50.46-19.51 49.27-17.96 48.07-16.41 48.07-13.45L48.07-13.45Q48.07-10.45 49.17-8.57 50.27-6.69 52.37-6.69ZM84.86 0.44L84.86 0.44Q77 0.44 77-9.4L77-9.4 77-18.6 73.85-18.6 73.85-25.2 88.69-26.66 88.69-9.4Q88.69-8.45 89.4-7.65 90.11-6.86 91.06-6.86L91.06-6.86Q92.16-6.86 92.78-7.6 93.4-8.35 93.4-9.45L93.4-9.45 93.4-18.6 91.06-18.6 91.06-25.2 105.1-26.66 105.1-7.35 108.25-7.35 108.25 0 93.4 0 93.4-3.81Q92.11-1.81 89.95-0.68 87.79 0.44 84.86 0.44ZM131.1 0.71L131.1 0.71Q125.68 0.71 121.23-1.59L121.23-1.59Q116.74-3.86 114.07-8.42 111.39-12.99 111.39-19.65L111.39-19.65Q111.39-25.22 113.42-29.79L113.42-29.79Q115.45-34.3 119.37-36.95 123.28-39.6 128.85-39.6L128.85-39.6Q131.68-39.6 133.94-38.27 136.2-36.94 137.2-34.91L137.2-34.91 138.2-38.84 145.79-38.84 145.79-22.9 138.01-22.9 138.01-23.71Q138.01-26.81 136.58-28.78 135.15-30.76 132.34-30.76L132.34-30.76Q130.46-30.76 128.87-29.32L128.87-29.32Q127.31-27.86 126.41-25.5 125.51-23.14 125.51-20.65L125.51-20.65Q125.51-15.75 127.95-12.98 130.39-10.21 134.64-10.21L134.64-10.21Q137.64-10.21 140.21-11.21 142.79-12.21 144.45-13.35L144.45-13.35 144.99-12.89 144.99-2.49Q141.89-0.71 138.44 0 135 0.71 131.1 0.71ZM164.22 0.44L164.22 0.44Q159.78 0.44 156.48-1.2L156.48-1.2Q153.14-2.81 151.28-5.93 149.43-9.06 149.43-13.35L149.43-13.35Q149.43-17.63 151.28-20.61L151.28-20.61Q153.14-23.61 156.48-25.13 159.83-26.66 164.22-26.66L164.22-26.66Q168.74-26.66 172.07-25.1 175.41-23.54 177.24-20.57 179.07-17.6 179.07-13.35L179.07-13.35Q179.07-9.06 177.24-5.93L177.24-5.93Q175.38-2.81 172.02-1.18 168.67 0.44 164.22 0.44ZM164.22-6.69L164.22-6.69Q165.83-6.69 166.62-8.28L166.62-8.28Q167.37-9.81 167.37-13.35L167.37-13.35Q167.37-16.6 166.63-18.05 165.88-19.51 164.22-19.51L164.22-19.51Q162.64-19.51 161.88-18.05 161.12-16.6 161.12-13.35L161.12-13.35Q161.12-9.89 161.9-8.28L161.9-8.28Q162.69-6.69 164.22-6.69ZM215.44-16.6L215.44-16.6 215.44-7.06 218.84-7.06 218.84 0 203.72 0 203.72-16.65Q203.72-17.7 203.05-18.51 202.38-19.31 201.43-19.31L201.43-19.31Q199.65-19.31 199.18-17.53L199.18-17.53Q198.69-15.7 198.69-12.4L198.69-12.4 198.69-7.06 198.74-7.06 198.74 0 183.48 0 183.48-7.06 187.02-7.06 187.02-18.6 183.48-18.6 183.48-25.2 198.69-26.66 198.69-23Q200.38-25 202.53-25.83 204.68-26.66 207.38-26.66L207.38-26.66Q215.44-26.66 215.44-16.6ZM253.99-16.6L253.99-16.6 253.99-7.06 257.38-7.06 257.38 0 242.27 0 242.27-16.65Q242.27-17.7 241.6-18.51 240.93-19.31 239.98-19.31L239.98-19.31Q238.19-19.31 237.73-17.53L237.73-17.53Q237.24-15.7 237.24-12.4L237.24-12.4 237.24-7.06 237.29-7.06 237.29 0 222.03 0 222.03-7.06 225.57-7.06 225.57-18.6 222.03-18.6 222.03-25.2 237.24-26.66 237.24-23Q238.93-25 241.07-25.83 243.22-26.66 245.93-26.66L245.93-26.66Q253.99-26.66 253.99-16.6ZM274.42 0.44L274.42 0.44Q269.88 0.44 266.54-1.25L266.54-1.25Q263.17-2.91 261.37-6.01 259.58-9.11 259.58-13.26L259.58-13.26Q259.58-17.36 261.34-20.39L261.34-20.39Q263.07-23.39 266.24-25.02 269.42-26.66 273.69-26.66L273.69-26.66Q277.62-26.66 280.62-25.12L280.62-25.12Q283.63-23.56 285.27-20.7 286.92-17.85 286.92-14.04L286.92-14.04Q286.92-12.72 286.53-11.55L286.53-11.55 271.32-11.55Q271.32-9.25 273.05-7.87 274.79-6.49 277.23-6.49L277.23-6.49Q279.08-6.49 281.31-7.14 283.53-7.79 285.77-9.16L285.77-9.16 286.19-9.01 286.19-2.44Q283.67-1 281.02-0.28 278.38 0.44 274.42 0.44ZM271.32-16.55L271.32-16.55 271.32-15.84 277.57-15.84 277.57-16.36Q277.57-18.09 276.78-19.35 275.98-20.61 274.42-20.61L274.42-20.61Q273.13-20.61 272.22-19.32 271.32-18.04 271.32-16.55ZM305.55 0.44L305.55 0.44Q301.08 0.44 297.76-1.27L297.76-1.27Q294.41-2.95 292.56-6.05 290.7-9.16 290.7-13.35L290.7-13.35Q290.7-17.14 292.27-20.17L292.27-20.17Q293.8-23.19 296.67-24.93 299.54-26.66 303.35-26.66L303.35-26.66Q304.79-26.66 306.4-26.31 308.01-25.95 309.29-25.27 310.58-24.58 310.99-23.56L310.99-23.56 311.99-26.15 317.31-26.15 317.31-15.36 310.26-15.36Q310.06-17.31 309.11-18.41 308.16-19.51 306.74-19.51L306.74-19.51Q304.64-19.51 303.54-18.18 302.45-16.85 302.45-13.31L302.45-13.31Q302.45-10.86 303.34-9.46 304.23-8.06 305.66-7.46 307.08-6.86 308.7-6.86L308.7-6.86Q310.45-6.86 312.5-7.48 314.56-8.11 316.14-9.45L316.14-9.45 316.51-9.2 316.51-2.39Q316.51-2.29 315.02-1.56L315.02-1.56Q313.53-0.81 311.06-0.18 308.6 0.44 305.55 0.44ZM333.74 0.44L333.74 0.44Q324.34 0.44 324.34-9.35L324.34-9.35 324.34-18.99 320.44-18.99 320.44-26.15 324.34-26.15 324.34-31.74 336.04-34.35 336.04-26.15 340.72-26.15 340.72-18.99 336.04-18.99 336.04-10.21Q336.04-9.11 336.87-8.37 337.7-7.64 338.94-7.64L338.94-7.64Q339.85-7.64 340.72-7.79L340.72-7.79 340.72-1Q337.5 0.44 333.74 0.44Z" opacity="1" transform="matrix(1,0,0,1,0,0)" fill="#ffffff" class="wordmark-text-0" data-fill-palette-color="quaternary" id="text-0"></path></svg></g></svg></g></svg></g></svg></g><g></g></svg></g><defs></defs></svg><rect width="356.12052" height="77.12449529759758" fill="none" stroke="none" visibility="hidden"></rect></g></svg></g></svg>